HIERARCHY
ROOT Hips
{
  OFFSET -102.467 93.6631 130.069
  CHANNELS 6 Xposition Yposition Zposition Zrotation Xrotation Yrotation
  JOINT LeftUpLeg
  {
    OFFSET 8.64259 1.95398 -2.38835
    CHANNELS 3 Zrotation Xrotation Yrotation
    JOINT LeftLeg
    {
      OFFSET 43.7702 0 0
      CHANNELS 3 Zrotation Xrotation Yrotation
      JOINT LeftFoot
      {
        OFFSET 40.6238 0 0
        CHANNELS 3 Zrotation Xrotation Yrotation
        JOINT LeftToeBase
        {
          OFFSET 12.7242 0 0
          CHANNELS 3 Zrotation Xrotation Yrotation
          End Site
          {
            OFFSET 0 0 0
          }
        }
      }
    }
  }
  JOINT RightUpLeg
  {
    OFFSET -8.2249 1.95398 -2.59336
    CHANNELS 3 Zrotation Xrotation Yrotation
    JOINT RightLeg
    {
      OFFSET 43.5653 0 0
      CHANNELS 3 Zrotation Xrotation Yrotation
      JOINT RightFoot
      {
        OFFSET 40.6238 0 0
        CHANNELS 3 Zrotation Xrotation Yrotation
        JOINT RightToeBase
        {
          OFFSET 12.7242 0 0
          CHANNELS 3 Zrotation Xrotation Yrotation
          End Site
          {
            OFFSET 0 0 0
          }
        }
      }
    }
  }
  JOINT Spine
  {
    OFFSET 0.165834 0.87714 6.61349
    CHANNELS 3 Zrotation Xrotation Yrotation
    JOINT Spine1
    {
      OFFSET 7.38963 1.71661e-005 0
      CHANNELS 3 Zrotation Xrotation Yrotation
      JOINT Spine2
      {
        OFFSET 11.9445 1.14441e-005 0
        CHANNELS 3 Zrotation Xrotation Yrotation
        JOINT Spine3
        {
          OFFSET 14.7254 4.19617e-005 0
          CHANNELS 3 Zrotation Xrotation Yrotation
          JOINT Spine4
          {
            OFFSET 10.9679 0 0
            CHANNELS 3 Zrotation Xrotation Yrotation
            JOINT RightShoulder
            {
              OFFSET 2.46616 -1.6653 3.69651
              CHANNELS 3 Zrotation Xrotation Yrotation
              JOINT RightArm
              {
                OFFSET 13.0012 0 0
                CHANNELS 3 Zrotation Xrotation Yrotation
                JOINT RightForeArm
                {
                  OFFSET 28.7848 1.52588e-005 0
                  CHANNELS 3 Zrotation Xrotation Yrotation
                  JOINT RightHand
                  {
                    OFFSET 26.5688 1.52588e-005 0
                    CHANNELS 3 Zrotation Xrotation Yrotation
                    End Site
                    {
                      OFFSET 0 0 0
                    }
                  }
                }
              }
            }
            JOINT LeftShoulder
            {
              OFFSET 2.38034 -1.29275 -3.7523
              CHANNELS 3 Zrotation Xrotation Yrotation
              JOINT LeftArm
              {
                OFFSET 16.3182 6.10351e-005 0
                CHANNELS 3 Zrotation Xrotation Yrotation
                JOINT LeftForeArm
                {
                  OFFSET 27.0901 0 0
                  CHANNELS 3 Zrotation Xrotation Yrotation
                  JOINT LeftHand
                  {
                    OFFSET 24.5451 1.52588e-005 0
                    CHANNELS 3 Zrotation Xrotation Yrotation
                    End Site
                    {
                      OFFSET 0 0 0
                    }
                  }
                }
              }
            }
            JOINT Neck
            {
              OFFSET 5.0226 -0.0266342 0
              CHANNELS 3 Zrotation Xrotation Yrotation
              JOINT Head
              {
                OFFSET 6.69363 2.86102e-005 0
                CHANNELS 3 Zrotation Xrotation Yrotation
                End Site
                {
                  OFFSET 0 0 0
                }
              }
            }
          }
        }
      }
    }
  }
}
MOTION
Frames:	9
Frame Time:	0.0416667
37.0557 87.9936 -313.658 -32.5809 -69.2687 -26.6695 164.155 -12.1607 50.4727 -106.468 -5.281 88.6257 -51.7517 17.1584 5.66382 -14.8646 -14.0904 56.7257 168.202 55.6175 109.293 -36.1579 15.7106 2.17562 49.2043 21.2735 47.1934 -19.2898 -44.0513 141.693 1.79171 8.00349 -90.1253 10.8799 3.50948 -0.578979 -0.786476 3.48059 -0.733071 -23.3594 3.52103 0.503868 -3.34675 3.52103 0.503865 97.0738 -40.3492 -91.1674 36.2907 4.91857 16.3199 25.5418 -10.211 -111.581 96.974 50.245 39.5675 44.9607 -78.3765 -134.877 68.9507 -18.6512 -82.3698 -35.3715 -26.4949 -13.3309 9.33351 -0.239964 -5.82756 135.708 16.6636 -5.91973 -126.764 14.2642 3.93381 
36.9841 87.8862 -314.454 -32.3521 -69.1944 -26.6155 164.39 -12.7307 49.9101 -105.826 -5.28974 88.6867 -52.8298 16.8466 5.9586 -14.2448 -13.9414 57.0553 168.413 55.7427 109.145 -35.3956 18.2244 1.92048 47.809 21.5316 49.1519 -22.0248 -46.4284 139.744 1.77689 7.99705 -90.0981 10.892 3.49248 -0.523914 -0.774422 3.46605 -0.6773 -23.3469 3.48828 0.551272 -3.33422 3.48828 0.551253 97.0685 -40.0653 -91.2119 36.8316 4.79998 16.9067 25.1795 -10.2916 -112.129 95.4819 50.4918 40.864 46.2528 -78.3678 -133.666 69.4003 -19.2133 -82.333 -36.1433 -26.569 -13.479 9.91923 -0.311329 -6.41704 135.791 16.8216 -6.0788 -126.965 14.0891 4.23721 
36.7757 87.569 -316.742 -31.697 -68.982 -26.4736 164.989 -14.4042 48.3614 -103.865 -5.16586 88.9084 -55.9931 15.924 6.80431 -12.3972 -13.4829 58.0508 169.071 56.0306 108.686 -32.9185 25.4391 1.16104 43.4106 21.7772 54.4981 -26.7932 -50.6729 137.006 1.73355 7.97854 -90.019 10.9264 3.44258 -0.363439 -0.74012 3.42324 -0.514778 -23.3111 3.39246 0.689239 -3.29842 3.39246 0.689234 97.0555 -39.2503 -91.3373 38.4084 4.4586 18.5897 24.1713 -10.5092 -113.687 91.4982 51.1051 44.4036 49.9026 -78.3147 -130.247 70.4398 -20.8349 -82.3046 -38.2618 -26.5743 -13.7485 11.5386 -0.534371 -8.0056 136.025 17.2728 -6.5318 -127.533 13.6013 5.08828 
36.4388 87.0493 -320.364 -30.6647 -68.6476 -26.2863 165.695 -17.1071 46.1436 -100.407 -4.46332 89.3571 -61.2155 14.3848 8.14194 -9.25656 -12.6492 59.7909 170.26 56.2476 107.847 -28.0474 36.7052 -0.174765 35.9698 20.4108 61.5255 -21.0328 -49.7256 145.625 1.6626 7.94945 -89.8909 10.9804 3.36046 -0.103049 -0.686234 3.35266 -0.251023 -23.2545 3.23589 0.912745 -3.24188 3.2359 0.912763 97.0418 -37.9642 -91.5286 40.9711 3.92156 21.2313 22.6434 -10.794 -116.106 86.0419 51.8445 49.4467 55.4424 -78.1511 -125.066 71.168 -23.4495 -82.6202 -41.2586 -25.9247 -13.514 13.9203 -0.929663 -10.229 136.39 17.9772 -7.23419 -128.407 12.8799 6.36956 
35.9824 86.3484 -325.16 -29.3039 -68.2072 -26.1043 166.164 -20.6495 43.6926 -95.2444 -2.47976 89.9495 -68.598 12.1413 9.82603 -4.64811 -11.2938 62.4924 172.15 55.9422 106.453 -19.4582 48.1992 -2.36271 27.3846 18.0921 65.6871 8.30728 -6.06394 173.884 1.5643 7.91095 -89.7157 11.0518 3.2458 0.253377 -0.61505 3.2538 0.110109 -23.1792 3.01945 1.21801 -3.16652 3.01945 1.21803 97.0348 -36.2708 -91.7701 44.4876 3.22451 24.6632 20.6674 -11.0102 -119.22 80.103 52.5187 55.197 62.236 -77.803 -118.732 69.9604 -27.0566 -84.1413 -44.4881 -23.812 -11.5014 16.789 -1.50361 -12.7274 136.864 18.8845 -8.13334 -129.516 12.0208 7.94281 
35.6384 85.5835 -330.91 -35.7374 -71.2735 -29.6017 169.854 -30.8016 45.1396 -71.2812 0.936296 89.9581 -83.8466 2.04681 29.6671 1.5204 -9.25931 66.6708 173.412 50.3618 109.077 -5.32316 62.9928 -5.79807 19.436 12.7839 65.8831 -176.695 67.0496 29.6534 1.59992 8.32761 -89.92 10.3035 3.22632 -0.293967 -1.3624 3.2102 -0.435835 -23.9369 3.16525 0.690216 -3.9242 3.16525 0.690226 97.0415 -34.2379 -92.0465 48.9243 2.41442 28.6868 18.2711 -10.9646 -122.844 74.3771 53.0369 61.0029 69.5507 -77.2208 -111.952 64.1088 -31.4992 -88.7468 -47.4692 -19.616 -5.57165 19.9517 -2.24484 -15.2549 136.89 20.3037 -9.24178 -135.109 10.4799 10.3152 
35.5045 85.3061 -338.272 -148.357 -78.2677 -135.172 -173.563 -62.226 59.9148 21.9662 -2.14892 84.1315 -88.6689 -3.75329 118.911 9.20646 -7.96493 74.1673 176.731 27.2239 108.212 5.6834 75.6089 -13.6952 15.179 10.2093 65.6004 -167.07 23.8963 25.8876 1.88773 11.065 -91.0075 4.82479 3.34561 -1.83602 -6.84201 3.26152 -1.98158 -29.4185 3.74257 -0.744589 -9.40587 3.74257 -0.744578 97.0665 -31.9398 -92.3438 54.2203 1.55211 33.0749 15.4961 -10.4466 -126.747 69.2858 53.3903 66.3916 76.6994 -76.3976 -105.385 49.2052 -35.2451 -99.9392 -51.2567 -3.04334 0.360022 23.3526 -3.1284 -17.6115 137.646 21.348 -10.329 -135.387 9.79507 11.8625 
34.4281 84.5059 -346.318 -152.407 -73.1513 -148.277 162.127 -69.5823 35.0073 -20.9128 6.59501 73.6644 -100.359 -3.62596 48.2383 19.7926 -0.166453 90.3766 176.935 25.3565 102.709 20.5707 78.8429 -29.2461 12.4058 7.69997 64.9804 -170.62 16.5284 26.2111 1.43584 11.7221 -89.818 3.41606 2.9421 0.356068 -8.25171 2.95492 0.226113 -30.809 2.69899 1.22445 -10.7964 2.69899 1.22443 97.1113 -29.4588 -92.6522 60.2609 0.709095 37.5849 12.4361 -9.28585 -130.652 65.0435 53.6132 71.0587 83.1816 -75.3715 -99.5047 22.2457 -32.301 -119.714 -46.463 36.1985 -0.077541 27.076 -4.0172 -19.2232 138.425 22.3865 -11.4604 -135.967 9.16059 13.4108 
33.7503 83.3644 -353.959 -155.043 -73.9175 -149.264 168.166 -74.1867 44.2579 -32.0646 16.3138 66.1036 -174.14 67.9725 7.80398 -89.7981 -5.19957 17.2802 177.714 29.3282 104.055 68.9182 84.0279 -77.0716 11.0543 6.53167 63.3406 -174.759 15.5687 26.6054 1.37978 11.6876 -89.9329 3.49559 2.78337 0.1396 -8.17237 2.78681 0.0168598 -30.7293 2.61265 0.970233 -10.7166 2.61264 0.970233 97.1736 -26.8797 -92.9658 66.8711 -0.0467433 41.9993 9.23277 -7.40932 -134.283 61.7089 53.7538 74.8592 88.7492 -74.2083 -94.533 -7.15073 -15.6015 -137.778 -24.1538 66.6992 -0.0892461 30.9955 -4.4788 -18.9406 139.242 23.3166 -12.5868 -136.496 8.64559 14.8467 
